HIERARCHY
ROOT Hips
{
	OFFSET -3.958830 18.904000 13.208200
	CHANNELS 6 Xposition Yposition Zposition Zrotation Yrotation Xrotation 
	JOINT LHipJoint
	{
		OFFSET 0.000000 0.000000 0.000000
		CHANNELS 3 Zrotation Yrotation Xrotation
		JOINT LeftUpLeg
		{
			OFFSET 1.800000 -1.400000 0.085000
			CHANNELS 3 Zrotation Yrotation Xrotation
			JOINT LeftLeg
			{
				OFFSET 2.215000 -6.000000 0.000000
				CHANNELS 3 Zrotation Yrotation Xrotation
				JOINT LeftFoot
				{
					OFFSET 2.500000 -6.900000 0.000000
					CHANNELS 3 Zrotation Yrotation Xrotation
					JOINT LeftToeBase
					{
						OFFSET 0.200000 -0.500000 1.950000
						CHANNELS 3 Zrotation Yrotation Xrotation
						End Site
						{
							OFFSET 0.000000 0.000000 0.000000
						}
					}
				}
			}
		}
	}
	JOINT RHipJoint
	{
		OFFSET 0.000000 0.000000 0.000000
		CHANNELS 3 Zrotation Yrotation Xrotation
		JOINT RightUpLeg
		{
			OFFSET -1.800000 -1.400000 0.085000
			CHANNELS 3 Zrotation Yrotation Xrotation
			JOINT RightLeg
			{
				OFFSET -2.215000 -6.000000 0.000000
				CHANNELS 3 Zrotation Yrotation Xrotation
				JOINT RightFoot
				{
					OFFSET -2.500000 -6.900000 0.000000
					CHANNELS 3 Zrotation Yrotation Xrotation
					JOINT RightToeBase
					{
						OFFSET -0.200000 -0.500000 1.950000
						CHANNELS 3 Zrotation Yrotation Xrotation
						End Site
						{
							OFFSET 0.000000 0.000000 0.000000
						}
					}
				}
			}
		}
	}
	JOINT LowerBack
	{
		OFFSET 0.000000 0.000000 0.000000
		CHANNELS 3 Zrotation Yrotation Xrotation
		JOINT Spine
		{
			OFFSET -0.087000 1.940000 -0.288900
			CHANNELS 3 Zrotation Yrotation Xrotation
			JOINT Spine1
			{
				OFFSET 0.000000 1.950000 0.060000
				CHANNELS 3 Zrotation Yrotation Xrotation
				JOINT Neck
				{
					OFFSET 0.000000 0.000000 0.000000
					CHANNELS 3 Zrotation Yrotation Xrotation
					JOINT Neck1
					{
						OFFSET 0.000000 1.600000 0.340000
						CHANNELS 3 Zrotation Yrotation Xrotation
						JOINT Head
						{
							OFFSET 0.000000 1.667000 -0.240000
							CHANNELS 3 Zrotation Yrotation Xrotation
							End Site
							{
								OFFSET 0.000000 0.000000 0.000000
							}
						}
					}
				}
				JOINT LeftShoulder
				{
					OFFSET 0.000000 0.000000 0.000000
					CHANNELS 3 Zrotation Yrotation Xrotation
					JOINT LeftArm
					{
						OFFSET 2.700000 1.550000 -0.730000
						CHANNELS 3 Zrotation Yrotation Xrotation
						JOINT LeftForeArm
						{
							OFFSET 5.450000 0.000000 0.000000
							CHANNELS 3 Zrotation Yrotation Xrotation
							JOINT LeftHand
							{
								OFFSET 3.450000 0.000000 0.000000
								CHANNELS 3 Zrotation Yrotation Xrotation
								JOINT LeftHandIndex1
								{
									OFFSET 0.750000 0.000000 0.000000
									CHANNELS 3 Zrotation Yrotation Xrotation
									End Site
									{
										OFFSET 0.000000 0.000000 0.000000
									}
								}
							}
						}
					}
				}
				JOINT RightShoulder
				{
					OFFSET 0.000000 0.000000 0.000000
					CHANNELS 3 Zrotation Yrotation Xrotation
					JOINT RightArm
					{
						OFFSET -2.700000 1.550000 -0.730000
						CHANNELS 3 Zrotation Yrotation Xrotation
						JOINT RightForeArm
						{
							OFFSET -5.450000 0.000000 0.000000
							CHANNELS 3 Zrotation Yrotation Xrotation
							JOINT RightHand
							{
								OFFSET -3.450000 0.000000 0.000000
								CHANNELS 3 Zrotation Yrotation Xrotation
								JOINT RightHandIndex1
								{
									OFFSET -0.750000 0.000000 0.000000
									CHANNELS 3 Zrotation Yrotation Xrotation
									End Site
									{
										OFFSET 0.000000 0.000000 0.000000
									}
								}
							}
						}
					}
				}
			}
		}
	}
}
MOTION
Frames: 8
Frame Time: 0.016667
-7.909460 17.252370 -23.439880 -13.042351 -78.860900 21.446400 -15.276675 15.071637 3.292071 -0.025907 1.742258 -2.940746 8.387383 3.280294 10.775317 -2.963528 3.911442 3.712068 -2.176170 -1.683220 -3.138050 17.716642 -9.808004 4.919661 -0.486513 7.844960 -41.006721 5.938256 -3.403449 9.413743 1.850389 -1.497572 6.232654 0.035780 1.779190 -2.795500 -3.111373 -4.689425 -8.247002 4.322003 -6.016324 17.024735 12.426101 -0.352727 -49.871420 1.824920 -4.908575 -18.042501 -27.312658 27.763687 55.555742 19.630400 2.761100 15.506680 18.803888 16.513717 0.514408 -5.973595 3.185932 -3.380239 162.895038 13.626695 105.702728 -4.625655 0.544790 1.443900 0.909000 -2.237570 -0.346560 -16.335955 -18.852949 7.266214 33.224283 -27.406144 -8.943673 21.696885 3.911339 0.133848 -0.155897 1.354380 -3.183370 2.584570 2.030140 -0.889090 
-8.098570 17.228650 -23.436580 -15.276711 -79.716482 25.899050 -15.328177 15.151457 3.257067 -0.281220 1.373533 -5.018107 7.983398 3.302490 12.517590 -2.949153 3.887430 3.734866 -2.307890 -1.879360 -3.250520 17.639455 -9.631639 5.125056 -0.693732 8.043189 -40.769841 8.322454 -2.648152 2.612168 1.905433 -1.416203 6.251362 -0.092140 1.850890 -2.763360 -2.887003 -5.124948 -8.570537 4.044388 -5.788889 13.285272 12.788464 -0.650652 -48.082811 3.919891 -5.166813 -19.261708 -27.010131 27.388956 54.188893 19.215960 1.754910 19.523490 21.704338 17.561582 -0.750350 -12.943592 1.523788 -5.884182 166.063118 15.176459 124.420627 -4.628350 0.628802 1.413860 0.944100 -2.314210 -0.378960 -22.413289 -18.327270 8.377586 38.174097 -25.765947 -10.598333 18.103283 6.300942 0.626867 -0.077854 1.353627 -3.183530 2.503690 2.117380 -0.864300 
-8.259140 17.241220 -23.472120 -9.593582 -82.463054 19.608310 -15.309860 15.001601 3.311851 -1.760791 2.007799 -3.663245 7.132595 3.549004 13.576940 -2.927548 3.765882 3.782987 -2.103070 -1.493800 -3.117930 17.668832 -9.789156 5.029203 0.088274 7.438868 -39.913062 7.209270 -2.198048 1.127489 1.911959 -1.353647 6.333739 0.156850 1.775830 -2.994680 -3.255109 -4.674084 -8.408801 4.989410 -7.105915 11.921061 10.191265 -2.578622 -48.689917 3.159434 -4.841665 -18.763183 -29.728885 32.341531 53.224770 25.733530 3.628300 19.327990 20.986217 17.228445 -1.168445 -12.004332 -2.073057 -6.077723 168.115172 16.112471 138.014933 -4.364758 0.460972 1.435270 0.840160 -2.264060 -0.272740 -20.281697 -20.224618 7.090161 38.545058 -26.039822 -11.123961 13.394527 12.655034 1.066505 -0.024705 1.190508 -3.282720 2.588120 1.809890 -0.836020 
-8.415560 17.288450 -23.466980 -19.266530 -84.845172 28.494855 -15.370603 14.912913 3.283092 -2.082524 2.447044 -2.498941 7.149864 3.628356 14.212517 -2.955366 3.788428 3.801196 -1.979370 -1.295020 -3.002880 17.652817 -9.851799 4.942251 2.586908 7.695907 -39.094648 5.141725 -2.080797 2.240346 1.950786 -1.239580 6.400314 0.300580 1.774720 -3.144650 -3.593877 -4.799219 -8.076311 9.369635 -7.721424 12.114779 6.091202 -3.555783 -50.096823 2.445303 -4.626229 -18.163144 -32.164291 36.109474 50.009279 30.303080 4.159290 18.398090 20.189649 16.676667 -1.784088 -12.293216 -5.592899 -7.157605 169.070377 13.512413 133.266522 -4.204045 0.438578 1.482850 0.778150 -2.263550 -0.229630 -17.819260 -21.267209 6.647723 38.398309 -28.173000 -11.522460 11.273911 20.599438 2.006769 -0.068604 0.964697 -3.389210 2.679380 1.640120 -0.826200 
-8.591860 17.316110 -23.442810 -17.015464 -84.262425 25.737471 -15.278360 14.797608 3.236604 -2.601974 2.777970 -1.987748 8.427157 3.309819 15.331411 -2.947022 3.843104 3.773018 -1.910720 -1.156150 -3.041000 17.755590 -10.077146 4.768390 2.627155 6.795059 -37.825991 4.831171 -2.116269 2.170279 1.929477 -1.310258 6.353895 0.404880 1.822400 -3.168690 -4.016048 -4.318525 -7.722380 13.583380 -7.373911 11.608856 2.174656 -5.816321 -51.465895 0.955043 -4.624283 -16.863532 -34.941108 38.709568 45.751440 34.692080 1.556010 16.347740 20.035954 17.538377 -3.796241 -20.550527 -11.125493 -8.907918 170.814796 8.759542 122.407506 -4.145355 0.604490 1.422640 0.764560 -2.284630 -0.188740 -15.054439 -24.047140 6.394031 35.206128 -32.517961 -11.395592 11.536651 29.922938 3.490697 -0.281610 0.512550 -3.371490 2.752030 1.628760 -0.767600 
-8.757560 17.331120 -23.420560 -26.210015 -83.258054 33.810841 -15.172601 14.779002 3.101283 -1.152616 2.546902 -1.194454 8.542559 3.384209 17.151551 -2.926746 4.208765 3.641476 -2.002400 -1.278930 -3.199220 17.873903 -10.253581 4.598715 3.532982 6.180181 -35.380021 4.892917 -2.297945 1.950536 1.913303 -1.433364 6.291849 0.356360 1.952590 -3.077910 -4.212874 -4.242037 -7.336485 18.056030 -7.895592 12.219046 -0.897993 -7.351651 -52.232067 -0.149264 -4.412528 -15.665305 -35.149743 38.578916 43.207947 35.403280 -0.811140 15.797120 18.640633 15.551437 -3.920850 -24.640509 -16.730316 -7.850205 172.622943 5.430609 105.378206 -4.346425 0.748237 1.352210 0.845380 -2.358880 -0.200340 -11.553800 -24.349784 6.344326 34.930913 -37.871272 -12.565789 8.694526 39.132442 3.857832 -0.406984 0.194470 -3.338830 2.810110 1.824410 -0.740120 
-8.901870 17.318570 -23.415150 -32.946635 -81.563080 38.903474 -14.953351 14.728590 2.935543 0.291127 1.976438 -0.635492 9.301833 3.186077 20.190645 -2.927899 4.739410 3.408178 -2.116870 -1.501080 -3.327330 18.102722 -10.498110 4.428080 4.689951 5.577916 -33.213197 4.406567 -2.794601 3.247837 1.864490 -1.572189 6.154744 0.240070 2.064410 -2.850850 -4.441310 -3.623582 -6.981118 21.840745 -7.737957 13.886019 -4.046557 -9.811815 -52.155031 -0.789559 -4.231459 -14.951790 -34.777604 37.002829 41.767149 35.933980 -4.704010 12.635170 19.520424 14.899116 -3.142181 -34.987329 -22.649767 -3.292289 174.428607 2.608080 88.622573 -4.644838 0.830457 1.324360 0.940190 -2.389660 -0.267360 -10.980237 -26.969907 4.862481 34.192447 -37.588025 -12.588394 8.839805 36.467297 3.422609 -0.624044 0.249859 -3.254220 2.802690 2.095810 -0.732690 
-9.039160 17.338840 -23.420330 -39.145253 -81.603507 43.214572 -14.680485 14.615439 2.868308 1.153222 1.567009 0.329137 8.121025 3.664411 23.137126 -2.831029 5.092025 3.266534 -2.175320 -1.565530 -3.345500 18.372039 -10.818819 4.246746 5.759714 4.912916 -32.081837 2.712650 -3.357193 6.862537 1.886491 -1.733072 6.115644 0.192370 2.050280 -2.832150 -4.744432 -2.535095 -6.808066 22.949893 -6.913889 16.912886 -6.571522 -13.254778 -51.591298 -0.033709 -3.669516 -15.232748 -30.973606 34.013616 42.128409 34.639220 -7.279800 12.493420 19.063702 12.126264 -0.424106 -39.334155 -30.217739 5.885428 173.902343 2.295598 79.563403 -4.777185 0.822856 1.259950 0.983210 -2.418540 -0.304580 -10.588588 -29.037095 2.887586 33.488827 -33.088330 -10.687808 11.025895 25.008973 2.450356 -0.728902 0.655099 -3.220560 2.748870 2.111530 -0.736970 
